<svg xmlns="http://www.w3.org/2000/svg" viewBox="0 0 32 32">
  <defs>
    <linearGradient id="gold" x1="0%" y1="0%" x2="100%" y2="100%">
      <stop offset="0%" style="stop-color:#f5d770"/>
      <stop offset="50%" style="stop-color:#d4a843"/>
      <stop offset="100%" style="stop-color:#b8860b"/>
    </linearGradient>
    <linearGradient id="bg" x1="0%" y1="0%" x2="0%" y2="100%">
      <stop offset="0%" style="stop-color:#0d1520"/>
      <stop offset="100%" style="stop-color:#070b12"/>
    </linearGradient>
  </defs>
  <!-- Background circle -->
  <circle cx="16" cy="16" r="15" fill="url(#bg)" stroke="url(#gold)" stroke-width="1.5"/>
  <!-- Trophy cup -->
  <path d="M11 10h10v2c0 3.5-2 6-5 7v2h3v1.5h-6V21h3v-2c-3-1-5-3.5-5-7V10z" fill="url(#gold)"/>
  <!-- Trophy handles -->
  <path d="M11 11c-2 0-3 1.5-3 3s1 3 3 3v-1c-1.2 0-2-.8-2-2s.8-2 2-2V11z" fill="url(#gold)" opacity="0.8"/>
  <path d="M21 11c2 0 3 1.5 3 3s-1 3-3 3v-1c1.2 0 2-.8 2-2s-.8-2-2-2V11z" fill="url(#gold)" opacity="0.8"/>
  <!-- Star on top -->
  <polygon points="16,6 16.8,8 18.8,8 17.2,9.2 17.8,11.2 16,10 14.2,11.2 14.8,9.2 13.2,8 15.2,8" fill="url(#gold)"/>
  <!-- Base -->
  <rect x="13" y="22.5" width="6" height="1.5" rx="0.5" fill="url(#gold)"/>
</svg>
